<svg xmlns="http://www.w3.org/2000/svg" width="16" height="16" viewBox="0 0 16 16"><defs><mask id="a6kpb" width="2" height="2" x="-1" y="-1"><path fill="#fff" d="M2 2h12v12H2z"/><path d="M8 14A6 6 0 1 0 8 2a6 6 0 0 0 0 12z"/></mask><filter id="a6kpa" width="36" height="36" x="-10" y="-10" filterUnits="userSpaceOnUse"><feOffset in="SourceGraphic" result="FeOffset1054Out"/><feGaussianBlur in="FeOffset1054Out" result="FeGaussianBlur1055Out" stdDeviation="0.8 0.8"/></filter></defs><g><g><g><g filter="url(#a6kpa)"><path fill="none" d="M8 14A6 6 0 1 0 8 2a6 6 0 0 0 0 12z" mask="url(&quot;#a6kpb&quot;)"/><path fill="#62e0d9" fill-opacity=".81" d="M8 14A6 6 0 1 0 8 2a6 6 0 0 0 0 12z"/></g><path fill="#62e0d9" d="M8 14A6 6 0 1 0 8 2a6 6 0 0 0 0 12z"/></g><g><g><path fill="#1b2330" d="M8.579 6l-.363.35 1.452 1.4H5.33v.5h4.338l-1.452 1.4.363.35 2.074-2z"/></g></g></g></g></svg>