<svg xmlns="http://www.w3.org/2000/svg" width="83" height="78" viewBox="0 0 83 78"><defs><clipPath id="tfipa"><path fill="#fff" d="M55.38 25.532a2.462 2.462 0 0 1 2.462-2.462H80.18a2.462 2.462 0 0 1 2.462 2.462v49.512a2.462 2.462 0 0 1-2.462 2.462H57.842a2.462 2.462 0 0 1-2.462-2.462z"/></clipPath><clipPath id="tfipb"><path fill="#fff" d="M55.38 28.99h27.262v1.183H55.38z"/></clipPath><clipPath id="tfipc"><path fill="#fff" d="M55.38 66.85h27.262v1.183H55.38z"/></clipPath></defs><g><g><g><g/><g><g><g><path fill="#62e0d9" d="M74.784.58c.654 0 1.185.529 1.185 1.183v52.882c0 .654-.531 1.183-1.185 1.183H52.903v7.244h3.944c.654 0 1.185.53 1.185 1.183v5.896c0 .652-.531 1.183-1.185 1.183H19.231a1.185 1.185 0 0 1-1.185-1.183v-5.896c0-.652.53-1.183 1.185-1.183h3.943v-7.244H1.295A1.183 1.183 0 0 1 .11 54.645V1.763C.11 1.11.64.58 1.295.58zM2.48 43.107H73.6V2.947H2.48zm48.054 21.15v-8.421h-24.99v8.422c0 .654-.53 1.182-1.186 1.182h-3.943v3.527h35.249V65.44H51.72a1.184 1.184 0 0 1-1.186-1.182zM2.48 53.46H73.6v-7.975H2.48z"/></g><g><path fill="#62e0d9" d="M36.415 47.92c-.654 0-1.185.53-1.185 1.183a1.185 1.185 0 0 0 2.37 0c0-.653-.53-1.183-1.185-1.183"/></g><g><g><path fill="#181f2b" d="M55.38 25.532a2.462 2.462 0 0 1 2.462-2.462H80.18a2.462 2.462 0 0 1 2.462 2.462v49.512a2.462 2.462 0 0 1-2.462 2.462H57.842a2.462 2.462 0 0 1-2.462-2.462z"/><path fill="none" stroke="#62e0d9" stroke-miterlimit="20" stroke-width="3.28" d="M55.38 25.532a2.462 2.462 0 0 1 2.462-2.462H80.18a2.462 2.462 0 0 1 2.462 2.462v49.512a2.462 2.462 0 0 1-2.462 2.462H57.842a2.462 2.462 0 0 1-2.462-2.462z" clip-path="url(&quot;#tfipa&quot;)"/></g><g><path fill="#fff" d="M55.38 28.99h27.262v1.183H55.38z"/><path fill="none" stroke="#62e0d9" stroke-miterlimit="20" stroke-width="2.92" d="M55.38 28.99v0h27.262v1.183H55.38v0z" clip-path="url(&quot;#tfipb&quot;)"/></g><g><path fill="#fff" d="M55.38 66.85h27.262v1.183H55.38z"/><path fill="none" stroke="#62e0d9" stroke-miterlimit="20" stroke-width="2.92" d="M55.38 66.85v0h27.262v1.183H55.38v0z" clip-path="url(&quot;#tfipc&quot;)"/></g><g><path fill="none" stroke="#62e0d9" stroke-miterlimit="20" stroke-width="1.01" d="M68.415 72.777a1.184 1.184 0 1 0 .002-2.369 1.184 1.184 0 0 0-.002 2.369z"/></g></g></g><g><g><g><path fill="#62e0d9" d="M34.036 28.765V17.45l5.917 1.997v11.316zM45.198 15.97l-5.235 2.07-5.927-2.07-5.53 1.874c-.198.098-.396.197-.396.493v14.89c0 .297.198.494.494.494h.197l5.235-2.071 5.927 2.07 5.531-1.873c.198-.098.395-.296.395-.493v-14.89c0-.297-.197-.494-.493-.494h-.198z"/></g></g><g><g><path fill="#fff" d="M29.572 18.112c0-.463.4-.827.909-.827.508 0 .908.364.908.827 0 .463-.4.827-.908.827-.51 0-.91-.364-.91-.827zm-1.462-.071c0 1.538 2.37 3.846 2.37 3.846s2.371-2.308 2.371-3.846c0-1.154-1.05-2.071-2.37-2.071-1.321 0-2.371.917-2.371 2.07z"/></g></g></g></g></g></g></g></svg>