<svg xmlns="http://www.w3.org/2000/svg" width="91" height="63" viewBox="0 0 91 63"><g><g><g/><g><g><path fill="none" stroke="#62e0d9" stroke-linecap="round" stroke-linejoin="round" stroke-miterlimit="20" stroke-width="1.4" d="M17.768 9.286h38.754L62.06 1h16.609a2.766 2.766 0 0 1 2.768 2.762v51.095A4.147 4.147 0 0 0 85.588 59H21.92C18.098 59 15 55.908 15 52.095V12.048a2.766 2.766 0 0 1 2.768-2.762zm69.29-2.814C88.683 6.472 90 7.71 90 9.236v45.617C90 57.143 88.025 59 85.588 59z"/></g><g><g><path fill="#62e0d9" d="M48.795 54.451c0 1.414-1.122 2.56-2.505 2.56H27.505c-1.384 0-2.505-1.146-2.505-2.56v-26.89C25 26.147 26.121 25 27.505 25h13.99c.665 0 1.302.27 1.772.75l4.794 4.902c.47.48.734 1.132.734 1.811zm-7.514-26.89v3.201c0 1.061.84 1.92 1.878 1.92h3.13z"/></g><g><path fill="none" stroke="#fff" stroke-linejoin="round" stroke-miterlimit="20" stroke-width=".8" d="M45.667 37.16l1.326-1.357c.733-.75 1.92-.75 2.652 0l1.098 1.125c.733.75.733 1.966 0 2.716L49.421 41l-3.751-3.836zm3.75 3.842l-3.747-3.839-.003-.002L33.77 49.325v3.842h3.757l11.897-12.165-.003-.003z"/></g><g/></g><g><g><path fill="#62e0d9" d="M10.789 44.554a2.99 2.99 0 0 1-2.997 2.981 2.99 2.99 0 0 1-2.997-2.981 2.99 2.99 0 0 1 2.997-2.982 2.99 2.99 0 0 1 2.997 2.982zm21.578-2.982c0-1.972-1.61-3.572-3.596-3.572H3.596C1.611 38 0 39.6 0 41.572v17.86c0 1.972 1.61 3.572 3.596 3.572h25.175c1.985 0 3.596-1.6 3.596-3.572z"/></g><g><path fill="none" stroke="#fff" stroke-linecap="round" stroke-linejoin="round" stroke-miterlimit="20" stroke-width=".65" d="M26.782 58.657v0l-7.05-7.455v0l-2.936 3.107v0l-4.112-4.349v0L4.46 58.657v0"/></g></g></g></g></g></svg>