<svg xmlns="http://www.w3.org/2000/svg" width="176" height="52" viewBox="0 0 176 52"><g><g><g><path fill="#fff" d="M29.754 45.782L0 32.222v5.015l29.754 13.591 29.859-13.637v-5.014zm0-10.17L0 22.054v5.014l29.754 13.59 29.859-13.636v-5.015zM10.727 16.438L29.75 7.636l19.024 8.802-19.025 8.801zM0 16.373v.129l29.754 13.764 29.859-13.811v-.035L29.754 2.61z"/></g><g><path fill="#fff" d="M101.524 8.451H83.811v8.769h17.477v5.94H83.811v16.688H76.65V2.18h24.874zm28.512 4.102l-12.254 32.386c-.91 2.42-2.105 4.164-3.581 5.233-1.477 1.068-3.236 1.603-5.279 1.603-.314 0-.66-.024-1.036-.071a7.787 7.787 0 0 1-1.084-.212l-2.262-6.317a8.98 8.98 0 0 0 1.649.589c.566.141 1.1.212 1.602.212 1.069 0 2.043-.243 2.922-.73.88-.488 1.555-1.391 2.027-2.711l.942-2.734-10.51-27.248h7.4l6.268 17.536 5.89-17.536zm14.547 27.153a9.087 9.087 0 0 1-1.814.613 9.217 9.217 0 0 1-2.097.236c-1.005 0-1.97-.134-2.897-.4a6.347 6.347 0 0 1-2.426-1.297c-.691-.597-1.24-1.375-1.649-2.334-.408-.958-.612-2.113-.612-3.465V.72h6.925v31.16c0 1.132.228 1.91.683 2.334.455.425.997.637 1.625.637.785 0 1.54-.236 2.262-.707zm30.282-7.802a13.849 13.849 0 0 1-3.109 4.526c-1.318 1.273-2.864 2.278-4.638 3.017-1.774.739-3.666 1.108-5.675 1.108-2.01 0-3.893-.37-5.651-1.108a14.653 14.653 0 0 1-4.616-3.04 14.116 14.116 0 0 1-3.108-4.55c-.753-1.744-1.13-3.622-1.13-5.633 0-1.98.385-3.842 1.154-5.587a14.718 14.718 0 0 1 3.132-4.572A14.452 14.452 0 0 1 155.839 13c1.758-.738 3.626-1.107 5.604-1.107 2.01 0 3.9.369 5.675 1.107 1.774.739 3.32 1.745 4.638 3.017 1.319 1.273 2.355 2.79 3.109 4.55.753 1.76 1.13 3.645 1.13 5.657 0 2.043-.377 3.936-1.13 5.68zm-6.256-8.933a8.493 8.493 0 0 0-1.673-2.64 7.675 7.675 0 0 0-2.473-1.768 7.259 7.259 0 0 0-3.015-.636 7.259 7.259 0 0 0-3.015.636 7.674 7.674 0 0 0-2.473 1.768 8.565 8.565 0 0 0-2.285 5.893 8.564 8.564 0 0 0 2.285 5.892 7.673 7.673 0 0 0 2.473 1.768 7.258 7.258 0 0 0 3.015.637 7.258 7.258 0 0 0 3.015-.637 7.675 7.675 0 0 0 2.473-1.768 8.563 8.563 0 0 0 2.285-5.893 8.564 8.564 0 0 0-.612-3.252z"/></g></g></g></svg>