<svg xmlns="http://www.w3.org/2000/svg" width="86" height="71" viewBox="0 0 86 71"><g><g><g><g/><g><g><path fill="none" stroke="#62e0d9" stroke-linecap="round" stroke-linejoin="round" stroke-miterlimit="20" stroke-width="1.3" d="M51.7 15.616a25.346 25.346 0 0 0-18.819-8.333c-14.022 0-25.388 11.346-25.388 25.344 0 13.999 11.366 25.345 25.388 25.345 14.022 0 25.388-11.346 25.388-25.345 0-4.327-1.086-8.4-3-11.964l4.462-4.454v.001a31.244 31.244 0 0 1 4.631 16.417c0 17.356-14.095 31.428-31.48 31.428C15.494 64.055 1.4 49.983 1.4 32.627S15.495 1.2 32.881 1.2c9.148 0 17.384 3.895 23.135 10.114l-4.313 4.306zm3.569 5.047L35.036 40.861a3.04 3.04 0 0 1-2.155.89c-.78 0-1.56-.296-2.153-.89l-13.08-13.057 4.308-4.3L32.881 34.41l18.822-18.79 3.564 5.04.002.003zm.747-9.35l4.16-4.152 4.31 4.3-4.755 4.748-3.696-4.875-.019-.02z"/></g><g><g><path fill="none" stroke="#62e0d9" stroke-linejoin="round" stroke-miterlimit="20" stroke-width="1.3" d="M55.365 40.48c0 2.48-2.015 4.49-4.498 4.49a4.494 4.494 0 0 1-4.497-4.49c0-2.48 2.015-4.49 4.497-4.49a4.494 4.494 0 0 1 4.498 4.49z"/></g><g><path fill="none" stroke="#62e0d9" stroke-linecap="round" stroke-linejoin="round" stroke-miterlimit="20" stroke-width="1.3" d="M50.866 44.97c-1.898 0-3.613.584-4.84 1.154a3.34 3.34 0 0 0-1.906 3.034v7.036a2.248 2.248 0 0 0 2.249 2.245v8.98a2.247 2.247 0 0 0 2.248 2.244h4.498a2.247 2.247 0 0 0 2.248-2.245v-8.98a2.248 2.248 0 0 0 2.249-2.244v-7.036a3.34 3.34 0 0 0-1.907-3.034c-1.227-.57-2.941-1.154-4.84-1.154z"/></g><g><path fill="none" stroke="#62e0d9" stroke-linejoin="round" stroke-miterlimit="20" stroke-width="1.3" d="M68.855 40.48c0 2.48-2.014 4.49-4.498 4.49a4.493 4.493 0 0 1-4.497-4.49c0-2.48 2.014-4.49 4.497-4.49a4.493 4.493 0 0 1 4.498 4.49z"/></g><g><path fill="none" stroke="#62e0d9" stroke-linecap="round" stroke-linejoin="round" stroke-miterlimit="20" stroke-width="1.3" d="M64.366 44.97c-1.898 0-3.613.584-4.84 1.154a3.34 3.34 0 0 0-1.906 3.034v7.036a2.247 2.247 0 0 0 2.249 2.245v8.98a2.248 2.248 0 0 0 2.248 2.244h4.498a2.247 2.247 0 0 0 2.248-2.245v-8.98a2.247 2.247 0 0 0 2.249-2.244v-7.036a3.34 3.34 0 0 0-1.907-3.034c-1.227-.57-2.941-1.154-4.84-1.154z"/></g><g><path fill="none" stroke="#62e0d9" stroke-linejoin="round" stroke-miterlimit="20" stroke-width="1.3" d="M82.355 40.48c0 2.48-2.014 4.49-4.498 4.49a4.493 4.493 0 0 1-4.497-4.49c0-2.48 2.014-4.49 4.497-4.49a4.493 4.493 0 0 1 4.498 4.49z"/></g><g><path fill="none" stroke="#62e0d9" stroke-linecap="round" stroke-linejoin="round" stroke-miterlimit="20" stroke-width="1.3" d="M77.856 44.97c-1.898 0-3.613.584-4.84 1.154a3.34 3.34 0 0 0-1.906 3.034v7.036a2.247 2.247 0 0 0 2.249 2.245v8.98a2.248 2.248 0 0 0 2.248 2.244h4.498a2.247 2.247 0 0 0 2.248-2.245v-8.98a2.247 2.247 0 0 0 2.249-2.244v-7.036a3.34 3.34 0 0 0-1.907-3.034c-1.227-.57-2.941-1.154-4.84-1.154z"/></g></g></g></g></g></g></svg>