<svg xmlns="http://www.w3.org/2000/svg" width="69" height="88" viewBox="0 0 69 88"><g><g><g/><g><g><path fill="none" stroke="#62e0d9" stroke-miterlimit="20" stroke-width="3.06" d="M43.708 35.503v0l-12.23 12.474v0L22.478 38.8v0l-4.499 4.589v0l13.497 13.765v0L52.084 36.14v0l-4.5-4.589v0z"/></g><g><path fill="none" stroke="#62e0d9" stroke-miterlimit="20" stroke-width="3.06" d="M56.912 9.846c-5.343 0-10.654-1.136-15.483-3.483-2.312-1.114-4.679-2.534-6.724-4.303-2.045 1.77-4.41 3.189-6.725 4.303C23.153 8.71 17.842 9.846 12.5 9.846H1.91v40.59c0 7.11 2.816 13.945 7.826 18.893 7.356 7.25 24.97 16.674 24.97 16.674v0S52.317 76.58 59.673 69.33c5.01-4.948 7.827-11.784 7.827-18.893V9.846v0z"/></g><g><path fill="none" stroke="#62e0d9" stroke-miterlimit="20" stroke-width="3.06" d="M58.94 24.528v26.249c0 4.742-1.903 9.34-5.219 12.615-4.613 4.547-15.128 10.77-19.01 13-3.887-2.233-14.41-8.463-19.018-13.004-3.314-3.272-5.213-7.869-5.213-12.611V18.923v0h2.024c6.706 0 13.334-1.498 19.166-4.333a44.312 44.312 0 0 0 3.04-1.61c.973.565 2 1.11 3.064 1.623 5.815 2.826 12.434 4.32 19.142 4.32h2.024v0z"/></g></g></g></g></svg>